<?xml version="1.0" encoding="UTF-8"?>
<svg xmlns="http://www.w3.org/2000/svg" xmlns:xlink="http://www.w3.org/1999/xlink" viewBox="0 0 50 50" width="50px" height="50px">
<g id="surface350982">
<path style=" stroke:none;fill-rule:nonzero;fill:rgb(95.686275%,45.882353%,12.941177%);fill-opacity:1;" d="M 25 3 C 12.851562 3 3 12.851562 3 25 C 3 40.1875 13.386719 44.539062 20.386719 45.972656 C 20.425781 45.984375 20.464844 45.984375 20.503906 45.984375 C 21.007812 45.984375 21.207031 45.253906 20.695312 45.03125 C 13.285156 41.789062 8.03125 34.328125 9.160156 25.492188 C 10.257812 16.921875 17.246094 10.070312 25.835938 9.117188 C 26.566406 9.039062 27.285156 9 28 9 C 35.539062 9 42.042969 13.394531 45.105469 19.761719 C 45.207031 19.96875 45.382812 20.058594 45.558594 20.058594 C 45.855469 20.058594 46.144531 19.808594 46.046875 19.4375 C 44.304688 12.710938 39 3 25 3 Z M 29 14 C 20.480469 14 13.621094 21.101562 14.015625 29.707031 C 14.367188 37.347656 20.652344 43.632812 28.292969 43.984375 C 28.527344 43.996094 28.765625 44 29 44 C 37.285156 44 44 37.285156 44 29 C 44 27.820312 43.859375 26.671875 43.601562 25.570312 C 43.542969 25.320312 43.332031 25.183594 43.113281 25.183594 C 42.960938 25.183594 42.804688 25.25 42.695312 25.398438 C 41.511719 26.976562 39.628906 28 37.5 28 C 37.398438 28 37.292969 27.996094 37.1875 27.992188 C 34.03125 27.84375 31.347656 25.316406 31.03125 22.171875 C 30.761719 19.476562 32.140625 17.082031 34.277344 15.863281 C 34.65625 15.644531 34.625 15.101562 34.21875 14.949219 C 32.59375 14.339844 30.839844 14 29 14 Z M 44.296875 26.597656 L 44.300781 26.597656 Z M 44.296875 26.597656 "/>
</g>
</svg>
